<svg xmlns="http://www.w3.org/2000/svg" xml:space="preserve" width="152.208" height="277.047" viewBox="0 0 40.272 73.302"><defs><filter id="a" width="1" height="1" x="0" y="0" style="color-interpolation-filters:sRGB"><feColorMatrix in="SourceGraphic" result="r" values="1 0 0 0 0 1 0 0 0 0 1 0 0 0 0 0 0 0 0 1"/><feColorMatrix in="SourceGraphic" result="g" values="0 1 0 0 0 0 1 0 0 0 0 1 0 0 0 0 0 0 0 1"/><feColorMatrix in="SourceGraphic" result="b" values="0 0 1 0 0 0 0 1 0 0 0 0 1 0 0 0 0 0 0 1"/><feBlend in="r" in2="g" mode="darken" result="minrg"/><feBlend in="minrg" in2="b" mode="darken" result="p"/><feBlend in="r" in2="g" mode="lighten" result="maxrg"/><feBlend in="maxrg" in2="b" mode="lighten" result="q"/><feComponentTransfer in="q" result="q2"><feFuncR slope="0" type="linear"/></feComponentTransfer><feBlend in="p" in2="q2" mode="lighten" result="pq"/><feColorMatrix in="pq" result="qminp" values="-1 1 0 0 0 -1 1 0 0 0 -1 1 0 0 0 0 0 0 0 1"/><feComposite in="qminp" in2="qminp" k3="1" operator="arithmetic" result="qminpc"/><feBlend in2="SourceGraphic" mode="screen" result="result2"/><feComposite in="result2" in2="SourceGraphic" operator="in" result="result1"/></filter></defs><g style="fill:#fff;fill-opacity:1;filter:url(#a)"><path d="M102.6 159.114c-.093-.309-.198-3.928-.258-8.827-.07-5.748-.113-6.418-.463-7.26a9.246 9.246 0 0 0-.747-1.342l-.484-.711-.556-.135c-1.617-.392-3.108-1.468-6.225-4.492-1.968-1.909-2.48-2.328-3.447-2.818-.36-.183-1.065-.659-1.564-1.056-1.002-.798-1.725-1.256-3.089-1.955-.499-.257-.908-.492-.909-.523 0-.031.13-.1.29-.153.247-.081.49-.05 1.649.208 1.768.395 3.03.782 4.75 1.455l2.05.8c1.282.497 1.69.822 3.312 2.638.364.408.961.97 1.326 1.248.974.741 1.358 1.263 1.789 2.43.251.68.713 1.454 1.509 2.527l.677.915.023-1.688c.013-.928-.006-1.968-.04-2.31-.12-1.171-.684-2.234-1.757-3.314-.634-.639-.801-.757-1.408-1-.96-.383-1.631-.887-3.29-2.473-1.049-1-1.976-1.775-3.41-2.85-1.211-.908-2.379-1.867-3.034-2.494-.658-.629-1.377-1.22-1.883-1.546-1.936-1.25-2.708-1.734-3.14-1.965-.482-.257-1.305-.956-1.134-.961.121-.004 2.438.884 3.371 1.292.373.163 1.473.683 2.444 1.156.972.472 2.136 1.022 2.588 1.22.451.199 1.137.55 1.523.779.817.486 4.451 3.186 4.986 3.705.836.81 1.634 2.121 1.847 3.036.154.661.309.907 1.136 1.813.368.404.75.9.849 1.103.098.204.205.37.236.37s.052-1.362.046-3.027c-.012-3.341-.018-3.384-.589-4.518-.32-.634-.602-.904-1.335-1.274-.55-.278-2.104-1.421-3.22-2.369-.885-.75-1.85-1.812-4.01-4.408-1.605-1.927-1.809-2.14-2.597-2.702-1.288-.919-2.222-1.69-3.903-3.218-2.041-1.858-2.718-2.506-2.668-2.555.065-.064 2.14 1.1 4.952 2.776 3.64 2.17 4.214 2.572 6.399 4.488.585.513 1.5 1.302 2.032 1.753 1.797 1.524 3.093 3.334 3.725 5.206.257.76.605 1.379.967 1.719l.213.2v-2.41c0-1.87-.028-2.523-.127-2.915-.137-.54-.632-1.605-1.05-2.26-.237-.37-.273-.395-.477-.317-.577.22-1.058-.007-1.817-.856-.869-.971-1.213-1.438-2.493-3.379-.66-1.001-1.637-2.354-2.17-3.005a120.717 120.717 0 0 1-1.363-1.694c-.542-.697-2.442-3.648-3.245-5.037a54.155 54.155 0 0 0-1.023-1.706c-.2-.31-.344-.582-.32-.606.11-.11.604.145 1.152.592.79.647 1.52 1.485 4.083 4.682 2.847 3.553 3.714 4.48 4.955 5.298 1.158.763 1.938 1.936 2.249 3.381.08.373.218.865.307 1.093.176.451 1.137 2.136 1.262 2.214.046.028.086-.717.099-1.799.036-3.22.06-2.967-.339-3.77-.503-1.016-.598-1.115-1.243-1.29-.773-.208-1.343-.648-2.345-1.81-1.65-1.91-2.87-3.678-3.775-5.472-.316-.626-.563-.95-1.41-1.85-.565-.6-1.39-1.406-1.833-1.79-1.307-1.133-3.036-2.85-2.777-2.76 1.066.377 2.99 1.909 5.93 4.72a49.61 49.61 0 0 0 2.54 2.24c1.686 1.364 2.254 1.908 2.76 2.643.531.77.874 1.454 1.273 2.54.294.8.785 1.68 1.068 1.915.197.163.225-.27.197-3.016l-.025-2.55-.339-.493c-.487-.71-1.606-1.858-2.876-2.954-1.67-1.441-2.058-1.909-3.77-4.558a557.384 557.384 0 0 0-2.308-3.528c-.734-1.113-1.36-2.15-1.39-2.304-.056-.275-.042-.267.67.378.399.363 1.348 1.334 2.11 2.16 1.561 1.691 1.883 2.012 2.485 2.475.233.18.512.471.62.649.108.177.444.741.747 1.253.303.512.767 1.19 1.03 1.506l.882 1.053c.243.29.521.769.706 1.214.21.507.48.952.869 1.433l.564.699.054-.497c.232-2.123-.156-3.734-1.142-4.735-.41-.417-.53-.632-1.118-2.009-1.136-2.66-2.736-7.104-3.296-9.155-.274-1.006-.397-1.974-.227-1.78.115.13 2.759 5.997 3.699 8.208a112.585 112.585 0 0 1 1.489 3.7c.623 1.665.626 1.669.693 1.313.038-.196.052-.966.032-1.711-.052-1.97-.177-2.365-1.618-5.1-.467-.886-.738-1.798-.848-2.859-.029-.28-.17-1.468-.314-2.642-.173-1.413-.241-2.267-.202-2.529.033-.217.09-.362.127-.321.101.11.394 1.085.557 1.852.08.372.366 1.366.637 2.208.89 2.76 1.434 4.887 1.438 5.613.003.463.048.729.162.942l.158.296.071-.254c.13-.464.078-3.487-.087-5.08-.273-2.65-.178-6.772.17-7.308.272-.421.341-.113.402 1.784.031.989.117 2.39.19 3.11.17 1.667.117 2.881-.175 4.02-.244.95-.281 1.865-.103 2.543.12.459.16.416.271-.297.084-.539.4-1.56.759-2.458.391-.978 1.705-3.722 1.782-3.722.077 0-.024 1.338-.186 2.452-.173 1.196-.523 2.23-1.132 3.347-.279.512-.67 1.255-.867 1.651l-.36.72.004 1.143c.002.629.035 1.295.073 1.482l.068.338.204-.624c.625-1.906 1.643-3.484 4.114-6.375 1.154-1.351 1.21-1.403 1.236-1.152.04.375-.255 1.12-.98 2.479-.778 1.455-1.183 2.158-1.785 3.09a57.979 57.979 0 0 0-1.172 1.947c-.46.799-.839 1.346-1.082 1.567-.205.186-.414.445-.463.577-.108.284-.125 3.783-.02 3.783.04 0 .21-.133.377-.296.217-.21.347-.445.45-.812.222-.792.695-1.431 2.182-2.948 1.859-1.898 1.97-1.994 4.285-3.73 2.007-1.503 2.51-1.84 2.605-1.746.051.051-.177.345-1.53 1.97-.458.55-1.35 1.774-1.983 2.72-1.197 1.79-1.345 1.953-2.647 2.919-.396.294-1.07.799-1.497 1.123-.428.323-1.018.74-1.31.927-.397.252-.583.437-.729.725l-.196.387.067 2.703.067 2.704.401-.37c.53-.488.7-.78.872-1.492.079-.326.29-.9.468-1.277.298-.628.443-.801 1.79-2.129.805-.795 1.712-1.66 2.015-1.922.817-.708 2.252-1.693 3.147-2.16.792-.415 2.033-.856 2.381-.848.183.004.182.007-.025.148-.116.08-.592.43-1.058.78-1.425 1.068-1.913 1.588-2.898 3.085-1.268 1.93-1.97 2.837-2.987 3.862-1.022 1.03-1.792 1.601-2.45 1.816-.55.18-1.127.734-1.472 1.416l-.226.448v2.57c0 2.318.013 2.56.131 2.461.288-.238.566-.872.726-1.658.21-1.028.563-1.951 1.003-2.623.465-.71 1.441-1.607 2.245-2.064.771-.44 1.888-1.182 3.81-2.534a48.394 48.394 0 0 1 2.118-1.414c2.4-1.453 2.76-1.64 3.14-1.64.232 0 .241.023.109.28-.447.866-2.19 2.5-4.232 3.966-2.06 1.478-2.806 2.258-4.81 5.025-.946 1.306-1.142 1.526-1.887 2.126-.69.555-.923.656-1.211.525-.117-.053-.224-.08-.238-.062-.015.02-.205.318-.423.664l-.397.629v2.824c0 2.746.004 2.822.16 2.739.19-.101.348-.511.348-.898 0-.66.791-2.513 1.553-3.637.448-.66 1.614-1.827 2.469-2.47 1.254-.942 3.817-2.712 4.706-3.25 1.086-.656 2.098-1.134 3.756-1.772a42.12 42.12 0 0 0 1.93-.794c1.065-.492.875-.136-.977 1.827-1.735 1.838-2.726 2.631-3.977 3.183-.734.323-1.163.717-2.418 2.216-.683.816-1.544 1.799-1.912 2.184-.869.909-3.504 3.009-4.346 3.464-.726.392-1.18.844-1.251 1.245-.026.145-.036 1.73-.023 3.522l.025 3.26.667-.931c.703-.979 1.06-1.666 1.232-2.37.262-1.076 1.023-2.016 2.354-2.908.43-.288 1.116-.814 1.524-1.168 1.18-1.023 2.093-1.575 4.848-2.929 2.913-1.43 8.233-3.84 8.72-3.95.178-.04.367-.045.42-.012.12.074-.985.81-2.451 1.63a73.206 73.206 0 0 0-2.794 1.702c-1.531.977-1.865 1.233-2.836 2.171a16.21 16.21 0 0 1-2.26 1.85c-1.292.878-2.61 1.971-4.006 3.321-1.562 1.512-2.089 1.88-3.386 2.363-.564.21-.617.254-1.08.896-.268.37-.592.884-.72 1.14l-.232.466-.025 2.45-.025 2.45.192-.249c.106-.137.435-.529.731-.871.604-.697.945-1.345.946-1.797.002-.823.331-1.278 1.976-2.734a14.4 14.4 0 0 0 1.246-1.285c.613-.735 1.308-1.304 2.23-1.828.823-.468 5.649-2.76 7.418-3.525 2.363-1.019 4.254-1.59 4.664-1.406.171.076.067.163-1.102.926-2.42 1.578-4.619 3.105-5.297 3.679-.373.315-1.102.82-1.62 1.12-1.413.82-2.097 1.375-4.053 3.281-1.833 1.786-2.705 2.472-3.912 3.079-.35.176-.8.328-1.058.358-.247.03-.577.13-.734.226-.316.192-.935.99-1.249 1.606-.444.876-.44.811-.543 8.892-.053 4.16-.132 7.699-.177 7.874-.07.273-.114.317-.321.317-.177 0-.257-.05-.298-.19z" style="fill:#fff;fill-opacity:1" transform="translate(-83.114 -86.002)"/></g></svg>